<svg width="728" height="768" viewBox="0 0 728 768" fill="none" xmlns="http://www.w3.org/2000/svg">
<g clip-path="url(#clip0_10_23)">
<path d="M272.408 243.619L220.955 154.5C216.132 146.146 207.218 141 197.572 141L94.6662 141C85.02 141 76.1066 146.146 71.2835 154.5L19.8305 243.619C15.0074 251.973 15.0074 262.265 19.8305 270.619L71.2835 359.738C76.1066 368.092 85.02 373.238 94.6662 373.238L197.572 373.238C207.218 373.238 216.132 368.092 220.955 359.738L272.408 270.619C277.231 262.265 277.231 251.973 272.408 243.619Z" stroke="#EDE500" stroke-width="14"/>
<path d="M708.408 497.619L656.955 408.5C652.132 400.146 643.218 395 633.572 395L530.666 395C521.02 395 512.107 400.146 507.284 408.5L455.831 497.619C451.007 505.973 451.007 516.265 455.831 524.619L507.284 613.738C512.107 622.092 521.02 627.238 530.666 627.238L633.572 627.238C643.218 627.238 652.132 622.092 656.955 613.738L708.408 524.619C713.231 516.265 713.231 505.973 708.408 497.619Z" stroke="#EDE500" stroke-width="14"/>
<path d="M708.408 243.619L656.955 154.5C652.132 146.146 643.218 141 633.572 141L530.666 141C521.02 141 512.107 146.146 507.284 154.5L455.831 243.619C451.007 251.973 451.007 262.265 455.831 270.619L507.284 359.738C512.107 368.092 521.02 373.238 530.666 373.238L633.572 373.238C643.218 373.238 652.132 368.092 656.955 359.738L708.408 270.619C713.231 262.265 713.231 251.973 708.408 243.619Z" stroke="#EDE500" stroke-width="14"/>
<path d="M490.408 370.619L438.955 281.5C434.132 273.146 425.218 268 415.572 268L312.666 268C303.02 268 294.107 273.146 289.284 281.5L237.831 370.619C233.007 378.973 233.007 389.265 237.831 397.619L289.284 486.738C294.107 495.092 303.02 500.238 312.666 500.238L415.572 500.238C425.218 500.238 434.132 495.092 438.955 486.738L490.408 397.619C495.231 389.265 495.231 378.973 490.408 370.619Z" stroke="#EDE500" stroke-width="14"/>
<path d="M490.408 623.619L438.955 534.5C434.132 526.146 425.218 521 415.572 521L312.666 521C303.02 521 294.107 526.146 289.284 534.5L237.831 623.619C233.007 631.973 233.007 642.265 237.831 650.619L289.284 739.738C294.107 748.092 303.02 753.238 312.666 753.238L415.572 753.238C425.218 753.238 434.132 748.092 438.955 739.738L490.408 650.619C495.231 642.265 495.231 631.973 490.408 623.619Z" stroke="#EDE500" stroke-width="14"/>
<path d="M272.408 497.619L220.955 408.5C216.132 400.146 207.218 395 197.572 395L94.6662 395C85.02 395 76.1066 400.146 71.2835 408.5L19.8305 497.619C15.0074 505.973 15.0074 516.265 19.8305 524.619L71.2835 613.738C76.1066 622.092 85.02 627.238 94.6662 627.238L197.572 627.238C207.218 627.238 216.132 622.092 220.955 613.738L272.408 524.619C277.231 516.265 277.231 505.973 272.408 497.619Z" stroke="#EDE500" stroke-width="14"/>
<path d="M490.408 117.619L438.955 28.5C434.132 20.1462 425.218 15 415.572 15L312.666 15C303.02 15 294.107 20.1462 289.284 28.5L237.831 117.619C233.007 125.973 233.007 136.265 237.831 144.619L289.284 233.738C294.107 242.092 303.02 247.238 312.666 247.238L415.572 247.238C425.218 247.238 434.132 242.092 438.955 233.738L490.408 144.619C495.231 136.265 495.231 125.973 490.408 117.619Z" stroke="#EDE500" stroke-width="14"/>
<mask id="path-8-outside-1_10_23" maskUnits="userSpaceOnUse" x="299" y="342" width="129" height="41" fill="black">
<rect fill="white" x="299" y="342" width="129" height="41"/>
<path d="M315.25 381.517C312.172 381.517 309.538 380.908 307.347 379.689C305.155 378.458 303.475 376.747 302.305 374.555C301.136 372.352 300.551 369.797 300.551 366.892C300.551 363.987 301.136 361.438 302.305 359.247C303.475 357.044 305.155 355.332 307.347 354.114C309.538 352.883 312.172 352.267 315.25 352.267C318.032 352.267 320.439 352.772 322.47 353.781C324.514 354.778 326.096 356.194 327.216 358.028C328.336 359.85 328.902 361.992 328.915 364.455H319.46C319.325 362.965 318.894 361.832 318.168 361.057C317.454 360.269 316.53 359.875 315.398 359.875C314.511 359.875 313.736 360.134 313.071 360.651C312.406 361.155 311.889 361.925 311.52 362.959C311.151 363.981 310.966 365.267 310.966 366.818C310.966 368.369 311.151 369.662 311.52 370.696C311.889 371.718 312.406 372.487 313.071 373.004C313.736 373.509 314.511 373.761 315.398 373.761C316.149 373.761 316.813 373.589 317.392 373.244C317.971 372.887 318.438 372.37 318.795 371.693C319.165 371.004 319.386 370.167 319.46 369.182H328.915C328.878 371.681 328.305 373.86 327.197 375.719C326.089 377.565 324.52 378.993 322.489 380.003C320.47 381.012 318.057 381.517 315.25 381.517ZM346.785 381.517C343.708 381.517 341.073 380.908 338.882 379.689C336.69 378.458 335.01 376.747 333.841 374.555C332.671 372.352 332.086 369.797 332.086 366.892C332.086 363.987 332.671 361.438 333.841 359.247C335.01 357.044 336.69 355.332 338.882 354.114C341.073 352.883 343.708 352.267 346.785 352.267C349.863 352.267 352.497 352.883 354.689 354.114C356.88 355.332 358.56 357.044 359.73 359.247C360.899 361.438 361.484 363.987 361.484 366.892C361.484 369.797 360.899 372.352 359.73 374.555C358.56 376.747 356.88 378.458 354.689 379.689C352.497 380.908 349.863 381.517 346.785 381.517ZM346.859 373.983C347.721 373.983 348.466 373.694 349.093 373.115C349.721 372.536 350.208 371.712 350.552 370.641C350.897 369.57 351.069 368.295 351.069 366.818C351.069 365.329 350.897 364.054 350.552 362.996C350.208 361.925 349.721 361.1 349.093 360.521C348.466 359.943 347.721 359.653 346.859 359.653C345.948 359.653 345.166 359.943 344.514 360.521C343.861 361.1 343.363 361.925 343.018 362.996C342.673 364.054 342.501 365.329 342.501 366.818C342.501 368.295 342.673 369.57 343.018 370.641C343.363 371.712 343.861 372.536 344.514 373.115C345.166 373.694 345.948 373.983 346.859 373.983ZM375.887 381.369C373.868 381.369 372.01 380.84 370.311 379.781C368.624 378.723 367.27 377.116 366.248 374.962C365.239 372.807 364.734 370.093 364.734 366.818C364.734 363.396 365.263 360.614 366.322 358.472C367.393 356.33 368.772 354.76 370.458 353.763C372.157 352.766 373.942 352.267 375.814 352.267C377.217 352.267 378.448 352.513 379.507 353.006C380.565 353.486 381.452 354.132 382.166 354.945C382.88 355.745 383.422 356.625 383.791 357.585H383.939V343.182H394.132V381H384.012V376.347H383.791C383.397 377.307 382.831 378.169 382.092 378.932C381.366 379.683 380.479 380.28 379.433 380.723C378.399 381.154 377.217 381.369 375.887 381.369ZM379.654 373.54C380.59 373.54 381.39 373.269 382.055 372.727C382.732 372.173 383.249 371.398 383.606 370.401C383.975 369.391 384.16 368.197 384.16 366.818C384.16 365.415 383.975 364.214 383.606 363.217C383.249 362.208 382.732 361.438 382.055 360.909C381.39 360.367 380.59 360.097 379.654 360.097C378.719 360.097 377.919 360.367 377.254 360.909C376.601 361.438 376.097 362.208 375.74 363.217C375.395 364.214 375.223 365.415 375.223 366.818C375.223 368.222 375.395 369.428 375.74 370.438C376.097 371.435 376.601 372.204 377.254 372.746C377.919 373.275 378.719 373.54 379.654 373.54ZM412.727 381.517C409.699 381.517 407.089 380.938 404.897 379.781C402.718 378.612 401.038 376.937 399.856 374.759C398.687 372.567 398.102 369.945 398.102 366.892C398.102 363.962 398.693 361.402 399.875 359.21C401.056 357.019 402.725 355.314 404.879 354.095C407.033 352.876 409.575 352.267 412.505 352.267C414.647 352.267 416.586 352.599 418.322 353.264C420.058 353.929 421.541 354.895 422.772 356.163C424.003 357.419 424.951 358.946 425.616 360.743C426.281 362.54 426.613 364.565 426.613 366.818V369.182H401.278V363.568H417.233C417.22 362.756 417.011 362.042 416.605 361.426C416.211 360.798 415.675 360.312 414.998 359.967C414.333 359.61 413.576 359.432 412.727 359.432C411.902 359.432 411.145 359.61 410.456 359.967C409.766 360.312 409.212 360.792 408.794 361.408C408.387 362.023 408.172 362.743 408.147 363.568V369.625C408.147 370.536 408.338 371.348 408.72 372.062C409.101 372.777 409.649 373.337 410.363 373.743C411.077 374.149 411.939 374.352 412.949 374.352C413.65 374.352 414.29 374.254 414.869 374.057C415.46 373.86 415.965 373.577 416.383 373.207C416.802 372.826 417.109 372.37 417.306 371.841H426.613C426.293 373.811 425.536 375.522 424.342 376.974C423.148 378.415 421.566 379.535 419.596 380.335C417.639 381.123 415.349 381.517 412.727 381.517Z"/>
</mask>
<path d="M315.25 381.517C312.172 381.517 309.538 380.908 307.347 379.689C305.155 378.458 303.475 376.747 302.305 374.555C301.136 372.352 300.551 369.797 300.551 366.892C300.551 363.987 301.136 361.438 302.305 359.247C303.475 357.044 305.155 355.332 307.347 354.114C309.538 352.883 312.172 352.267 315.25 352.267C318.032 352.267 320.439 352.772 322.47 353.781C324.514 354.778 326.096 356.194 327.216 358.028C328.336 359.85 328.902 361.992 328.915 364.455H319.46C319.325 362.965 318.894 361.832 318.168 361.057C317.454 360.269 316.53 359.875 315.398 359.875C314.511 359.875 313.736 360.134 313.071 360.651C312.406 361.155 311.889 361.925 311.52 362.959C311.151 363.981 310.966 365.267 310.966 366.818C310.966 368.369 311.151 369.662 311.52 370.696C311.889 371.718 312.406 372.487 313.071 373.004C313.736 373.509 314.511 373.761 315.398 373.761C316.149 373.761 316.813 373.589 317.392 373.244C317.971 372.887 318.438 372.37 318.795 371.693C319.165 371.004 319.386 370.167 319.46 369.182H328.915C328.878 371.681 328.305 373.86 327.197 375.719C326.089 377.565 324.52 378.993 322.489 380.003C320.47 381.012 318.057 381.517 315.25 381.517ZM346.785 381.517C343.708 381.517 341.073 380.908 338.882 379.689C336.69 378.458 335.01 376.747 333.841 374.555C332.671 372.352 332.086 369.797 332.086 366.892C332.086 363.987 332.671 361.438 333.841 359.247C335.01 357.044 336.69 355.332 338.882 354.114C341.073 352.883 343.708 352.267 346.785 352.267C349.863 352.267 352.497 352.883 354.689 354.114C356.88 355.332 358.56 357.044 359.73 359.247C360.899 361.438 361.484 363.987 361.484 366.892C361.484 369.797 360.899 372.352 359.73 374.555C358.56 376.747 356.88 378.458 354.689 379.689C352.497 380.908 349.863 381.517 346.785 381.517ZM346.859 373.983C347.721 373.983 348.466 373.694 349.093 373.115C349.721 372.536 350.208 371.712 350.552 370.641C350.897 369.57 351.069 368.295 351.069 366.818C351.069 365.329 350.897 364.054 350.552 362.996C350.208 361.925 349.721 361.1 349.093 360.521C348.466 359.943 347.721 359.653 346.859 359.653C345.948 359.653 345.166 359.943 344.514 360.521C343.861 361.1 343.363 361.925 343.018 362.996C342.673 364.054 342.501 365.329 342.501 366.818C342.501 368.295 342.673 369.57 343.018 370.641C343.363 371.712 343.861 372.536 344.514 373.115C345.166 373.694 345.948 373.983 346.859 373.983ZM375.887 381.369C373.868 381.369 372.01 380.84 370.311 379.781C368.624 378.723 367.27 377.116 366.248 374.962C365.239 372.807 364.734 370.093 364.734 366.818C364.734 363.396 365.263 360.614 366.322 358.472C367.393 356.33 368.772 354.76 370.458 353.763C372.157 352.766 373.942 352.267 375.814 352.267C377.217 352.267 378.448 352.513 379.507 353.006C380.565 353.486 381.452 354.132 382.166 354.945C382.88 355.745 383.422 356.625 383.791 357.585H383.939V343.182H394.132V381H384.012V376.347H383.791C383.397 377.307 382.831 378.169 382.092 378.932C381.366 379.683 380.479 380.28 379.433 380.723C378.399 381.154 377.217 381.369 375.887 381.369ZM379.654 373.54C380.59 373.54 381.39 373.269 382.055 372.727C382.732 372.173 383.249 371.398 383.606 370.401C383.975 369.391 384.16 368.197 384.16 366.818C384.16 365.415 383.975 364.214 383.606 363.217C383.249 362.208 382.732 361.438 382.055 360.909C381.39 360.367 380.59 360.097 379.654 360.097C378.719 360.097 377.919 360.367 377.254 360.909C376.601 361.438 376.097 362.208 375.74 363.217C375.395 364.214 375.223 365.415 375.223 366.818C375.223 368.222 375.395 369.428 375.74 370.438C376.097 371.435 376.601 372.204 377.254 372.746C377.919 373.275 378.719 373.54 379.654 373.54ZM412.727 381.517C409.699 381.517 407.089 380.938 404.897 379.781C402.718 378.612 401.038 376.937 399.856 374.759C398.687 372.567 398.102 369.945 398.102 366.892C398.102 363.962 398.693 361.402 399.875 359.21C401.056 357.019 402.725 355.314 404.879 354.095C407.033 352.876 409.575 352.267 412.505 352.267C414.647 352.267 416.586 352.599 418.322 353.264C420.058 353.929 421.541 354.895 422.772 356.163C424.003 357.419 424.951 358.946 425.616 360.743C426.281 362.54 426.613 364.565 426.613 366.818V369.182H401.278V363.568H417.233C417.22 362.756 417.011 362.042 416.605 361.426C416.211 360.798 415.675 360.312 414.998 359.967C414.333 359.61 413.576 359.432 412.727 359.432C411.902 359.432 411.145 359.61 410.456 359.967C409.766 360.312 409.212 360.792 408.794 361.408C408.387 362.023 408.172 362.743 408.147 363.568V369.625C408.147 370.536 408.338 371.348 408.72 372.062C409.101 372.777 409.649 373.337 410.363 373.743C411.077 374.149 411.939 374.352 412.949 374.352C413.65 374.352 414.29 374.254 414.869 374.057C415.46 373.86 415.965 373.577 416.383 373.207C416.802 372.826 417.109 372.37 417.306 371.841H426.613C426.293 373.811 425.536 375.522 424.342 376.974C423.148 378.415 421.566 379.535 419.596 380.335C417.639 381.123 415.349 381.517 412.727 381.517Z" fill="#EDE500"/>
<path d="M307.347 379.689L306.857 380.561L306.861 380.563L307.347 379.689ZM302.305 374.555L301.422 375.024L301.423 375.026L302.305 374.555ZM302.305 359.247L303.188 359.718L303.189 359.716L302.305 359.247ZM307.347 354.114L307.833 354.988L307.836 354.985L307.347 354.114ZM322.47 353.781L322.025 354.677L322.032 354.68L322.47 353.781ZM327.216 358.028L326.362 358.55L326.364 358.552L327.216 358.028ZM328.915 364.455V365.455H329.92L329.915 364.45L328.915 364.455ZM319.46 364.455L318.464 364.545L318.547 365.455H319.46V364.455ZM318.168 361.057L317.427 361.728L317.432 361.734L317.438 361.74L318.168 361.057ZM313.071 360.651L313.676 361.447L313.685 361.44L313.071 360.651ZM311.52 362.959L312.46 363.299L312.462 363.295L311.52 362.959ZM311.52 370.696L310.578 371.032L310.579 371.036L311.52 370.696ZM313.071 373.004L312.457 373.794L312.466 373.801L313.071 373.004ZM317.392 373.244L317.904 374.103L317.911 374.099L317.917 374.095L317.392 373.244ZM318.795 371.693L317.914 371.221L317.911 371.227L318.795 371.693ZM319.46 369.182V368.182H318.532L318.463 369.107L319.46 369.182ZM328.915 369.182L329.915 369.197L329.93 368.182H328.915V369.182ZM327.197 375.719L328.055 376.233L328.056 376.231L327.197 375.719ZM322.489 380.003L322.044 379.107L322.041 379.108L322.489 380.003ZM315.25 380.517C312.304 380.517 309.845 379.934 307.833 378.815L306.861 380.563C309.231 381.881 312.041 382.517 315.25 382.517V380.517ZM307.836 378.817C305.809 377.678 304.266 376.105 303.188 374.085L301.423 375.026C302.684 377.388 304.501 379.237 306.857 380.561L307.836 378.817ZM303.189 374.087C302.108 372.049 301.551 369.661 301.551 366.892H299.551C299.551 369.934 300.164 372.654 301.422 375.024L303.189 374.087ZM301.551 366.892C301.551 364.123 302.108 361.742 303.188 359.718L301.423 358.776C300.164 361.135 299.551 363.85 299.551 366.892H301.551ZM303.189 359.716C304.267 357.684 305.809 356.113 307.833 354.988L306.861 353.24C304.501 354.552 302.683 356.403 301.422 358.778L303.189 359.716ZM307.836 354.985C309.848 353.855 312.306 353.267 315.25 353.267V351.267C312.039 351.267 309.228 351.91 306.857 353.242L307.836 354.985ZM315.25 353.267C317.912 353.267 320.16 353.75 322.025 354.677L322.915 352.886C320.718 351.794 318.152 351.267 315.25 351.267V353.267ZM322.032 354.68C323.914 355.599 325.348 356.888 326.362 358.55L328.069 357.507C326.844 355.5 325.113 353.958 322.909 352.883L322.032 354.68ZM326.364 358.552C327.375 360.196 327.903 362.152 327.915 364.46L329.915 364.45C329.902 361.832 329.298 359.505 328.068 357.505L326.364 358.552ZM328.915 363.455H319.46V365.455H328.915V363.455ZM320.456 364.364C320.309 362.741 319.827 361.366 318.898 360.373L317.438 361.74C317.961 362.299 318.341 363.189 318.464 364.545L320.456 364.364ZM318.909 360.385C317.992 359.373 316.792 358.875 315.398 358.875V360.875C316.269 360.875 316.916 361.165 317.427 361.728L318.909 360.385ZM315.398 358.875C314.302 358.875 313.307 359.2 312.457 359.861L313.685 361.44C314.165 361.067 314.721 360.875 315.398 360.875V358.875ZM312.466 359.854C311.605 360.508 310.993 361.462 310.578 362.622L312.462 363.295C312.786 362.387 313.207 361.803 313.676 361.447L312.466 359.854ZM310.579 362.619C310.158 363.785 309.966 365.197 309.966 366.818H311.966C311.966 365.338 312.143 364.176 312.46 363.299L310.579 362.619ZM309.966 366.818C309.966 368.44 310.158 369.856 310.578 371.032L312.462 370.36C312.143 369.468 311.966 368.298 311.966 366.818H309.966ZM310.579 371.036C310.995 372.185 311.606 373.131 312.457 373.794L313.685 372.215C313.207 371.843 312.784 371.251 312.46 370.356L310.579 371.036ZM312.466 373.801C313.316 374.446 314.307 374.761 315.398 374.761V372.761C314.715 372.761 314.155 372.572 313.676 372.208L312.466 373.801ZM315.398 374.761C316.308 374.761 317.153 374.551 317.904 374.103L316.88 372.385C316.474 372.627 315.99 372.761 315.398 372.761V374.761ZM317.917 374.095C318.666 373.633 319.25 372.974 319.68 372.16L317.911 371.227C317.626 371.766 317.275 372.141 316.867 372.393L317.917 374.095ZM319.677 372.165C320.127 371.325 320.376 370.345 320.457 369.257L318.463 369.107C318.397 369.988 318.203 370.682 317.914 371.221L319.677 372.165ZM319.46 370.182H328.915V368.182H319.46V370.182ZM327.915 369.167C327.88 371.518 327.344 373.52 326.338 375.207L328.056 376.231C329.267 374.199 329.876 371.843 329.915 369.197L327.915 369.167ZM326.34 375.204C325.336 376.878 323.913 378.178 322.044 379.107L322.934 380.898C325.126 379.809 326.843 378.253 328.055 376.233L326.34 375.204ZM322.041 379.108C320.191 380.034 317.939 380.517 315.25 380.517V382.517C318.175 382.517 320.748 381.991 322.936 380.897L322.041 379.108ZM338.882 379.689L338.392 380.561L338.396 380.563L338.882 379.689ZM333.841 374.555L332.957 375.024L332.958 375.026L333.841 374.555ZM333.841 359.247L334.723 359.718L334.724 359.716L333.841 359.247ZM338.882 354.114L339.368 354.988L339.372 354.985L338.882 354.114ZM354.689 354.114L354.199 354.985L354.203 354.988L354.689 354.114ZM359.73 359.247L358.846 359.716L358.848 359.718L359.73 359.247ZM359.73 374.555L360.612 375.026L360.613 375.024L359.73 374.555ZM354.689 379.689L355.175 380.563L355.178 380.561L354.689 379.689ZM349.093 373.115L349.771 373.85L349.771 373.85L349.093 373.115ZM350.552 370.641L351.504 370.947L351.504 370.947L350.552 370.641ZM350.552 362.996L349.6 363.302L349.601 363.305L350.552 362.996ZM349.093 360.521L349.771 359.786L349.771 359.786L349.093 360.521ZM343.018 362.996L343.969 363.305L343.97 363.302L343.018 362.996ZM343.018 370.641L343.97 370.334L343.97 370.334L343.018 370.641ZM346.785 380.517C343.839 380.517 341.38 379.934 339.368 378.815L338.396 380.563C340.766 381.881 343.576 382.517 346.785 382.517V380.517ZM339.372 378.817C337.345 377.678 335.801 376.105 334.723 374.085L332.958 375.026C334.219 377.388 336.036 379.237 338.392 380.561L339.372 378.817ZM334.724 374.087C333.643 372.049 333.086 369.661 333.086 366.892H331.086C331.086 369.934 331.699 372.654 332.957 375.024L334.724 374.087ZM333.086 366.892C333.086 364.123 333.643 361.742 334.723 359.718L332.958 358.776C331.699 361.135 331.086 363.85 331.086 366.892H333.086ZM334.724 359.716C335.802 357.684 337.344 356.113 339.368 354.988L338.396 353.24C336.037 354.552 334.218 356.403 332.957 358.778L334.724 359.716ZM339.372 354.985C341.383 353.855 343.841 353.267 346.785 353.267V351.267C343.574 351.267 340.763 351.91 338.392 353.242L339.372 354.985ZM346.785 353.267C349.729 353.267 352.187 353.855 354.199 354.985L355.178 353.242C352.807 351.91 349.996 351.267 346.785 351.267V353.267ZM354.203 354.988C356.226 356.113 357.768 357.684 358.846 359.716L360.613 358.778C359.353 356.403 357.534 354.552 355.175 353.24L354.203 354.988ZM358.848 359.718C359.928 361.742 360.484 364.123 360.484 366.892H362.484C362.484 363.85 361.871 361.135 360.612 358.776L358.848 359.718ZM360.484 366.892C360.484 369.661 359.928 372.049 358.846 374.087L360.613 375.024C361.871 372.654 362.484 369.934 362.484 366.892H360.484ZM358.848 374.085C357.769 376.105 356.226 377.678 354.199 378.817L355.178 380.561C357.534 379.237 359.351 377.388 360.612 375.026L358.848 374.085ZM354.203 378.815C352.19 379.934 349.731 380.517 346.785 380.517V382.517C349.995 382.517 352.804 381.881 355.175 380.563L354.203 378.815ZM346.859 374.983C347.969 374.983 348.957 374.601 349.771 373.85L348.416 372.38C347.974 372.786 347.472 372.983 346.859 372.983V374.983ZM349.771 373.85C350.56 373.123 351.123 372.132 351.504 370.947L349.6 370.334C349.292 371.292 348.883 371.949 348.416 372.38L349.771 373.85ZM351.504 370.947C351.889 369.752 352.069 368.369 352.069 366.818H350.069C350.069 368.222 349.905 369.388 349.6 370.334L351.504 370.947ZM352.069 366.818C352.069 365.257 351.889 363.872 351.503 362.686L349.601 363.305C349.905 364.237 350.069 365.401 350.069 366.818H352.069ZM351.504 362.689C351.123 361.505 350.56 360.513 349.771 359.786L348.416 361.257C348.883 361.687 349.292 362.345 349.6 363.302L351.504 362.689ZM349.771 359.786C348.957 359.035 347.969 358.653 346.859 358.653V360.653C347.472 360.653 347.974 360.85 348.416 361.257L349.771 359.786ZM346.859 358.653C345.715 358.653 344.695 359.025 343.85 359.773L345.177 361.269C345.638 360.861 346.181 360.653 346.859 360.653V358.653ZM343.85 359.773C343.03 360.5 342.45 361.496 342.066 362.689L343.97 363.302C344.275 362.353 344.692 361.7 345.177 361.269L343.85 359.773ZM342.067 362.686C341.681 363.872 341.501 365.257 341.501 366.818H343.501C343.501 365.401 343.666 364.237 343.969 363.305L342.067 362.686ZM341.501 366.818C341.501 368.369 341.681 369.752 342.066 370.947L343.97 370.334C343.665 369.388 343.501 368.222 343.501 366.818H341.501ZM342.066 370.947C342.45 372.14 343.03 373.136 343.85 373.863L345.177 372.367C344.692 371.937 344.275 371.283 343.97 370.334L342.066 370.947ZM343.85 373.863C344.695 374.612 345.715 374.983 346.859 374.983V372.983C346.181 372.983 345.638 372.775 345.177 372.367L343.85 373.863ZM370.311 379.781L369.779 380.628L369.782 380.63L370.311 379.781ZM366.248 374.962L365.343 375.386L365.345 375.39L366.248 374.962ZM366.322 358.472L365.428 358.024L365.426 358.029L366.322 358.472ZM370.458 353.763L369.952 352.9L369.95 352.902L370.458 353.763ZM379.507 353.006L379.085 353.912L379.094 353.916L379.507 353.006ZM382.166 354.945L381.415 355.605L381.42 355.61L382.166 354.945ZM383.791 357.585L382.857 357.944L383.104 358.585H383.791V357.585ZM383.939 357.585V358.585H384.939V357.585H383.939ZM383.939 343.182V342.182H382.939V343.182H383.939ZM394.132 343.182H395.132V342.182H394.132V343.182ZM394.132 381V382H395.132V381H394.132ZM384.012 381H383.012V382H384.012V381ZM384.012 376.347H385.012V375.347H384.012V376.347ZM383.791 376.347V375.347H383.12L382.866 375.967L383.791 376.347ZM382.092 378.932L381.373 378.236L381.373 378.237L382.092 378.932ZM379.433 380.723L379.818 381.646L379.823 381.644L379.433 380.723ZM382.055 372.727L382.687 373.503L382.688 373.501L382.055 372.727ZM383.606 370.401L382.667 370.057L382.665 370.063L383.606 370.401ZM383.606 363.217L382.663 363.551L382.666 363.558L382.668 363.565L383.606 363.217ZM382.055 360.909L381.423 361.684L381.431 361.691L381.439 361.697L382.055 360.909ZM377.254 360.909L377.884 361.686L377.886 361.684L377.254 360.909ZM375.74 363.217L374.797 362.884L374.795 362.891L375.74 363.217ZM375.74 370.438L374.793 370.761L374.796 370.768L374.798 370.775L375.74 370.438ZM377.254 372.746L376.615 373.515L376.623 373.522L376.631 373.528L377.254 372.746ZM375.887 380.369C374.054 380.369 372.378 379.891 370.84 378.933L369.782 380.63C371.641 381.788 373.683 382.369 375.887 382.369V380.369ZM370.842 378.934C369.347 377.995 368.108 376.55 367.152 374.533L365.345 375.39C366.432 377.682 367.902 379.45 369.779 380.628L370.842 378.934ZM367.154 374.537C366.225 372.556 365.734 369.998 365.734 366.818H363.734C363.734 370.187 364.252 373.059 365.343 375.386L367.154 374.537ZM365.734 366.818C365.734 363.488 366.251 360.873 367.219 358.915L365.426 358.029C364.276 360.355 363.734 363.304 363.734 366.818H365.734ZM367.217 358.919C368.221 356.91 369.48 355.503 370.967 354.624L369.95 352.902C368.064 354.017 366.565 355.749 365.428 358.024L367.217 358.919ZM370.965 354.625C372.518 353.713 374.13 353.267 375.814 353.267V351.267C373.755 351.267 371.796 351.818 369.952 352.9L370.965 354.625ZM375.814 353.267C377.1 353.267 378.182 353.493 379.085 353.912L379.928 352.099C378.714 351.534 377.334 351.267 375.814 351.267V353.267ZM379.094 353.916C380.033 354.342 380.801 354.907 381.415 355.605L382.917 354.284C382.102 353.358 381.098 352.629 379.92 352.095L379.094 353.916ZM381.42 355.61C382.057 356.324 382.533 357.101 382.857 357.944L384.724 357.226C384.31 356.149 383.703 355.165 382.912 354.279L381.42 355.61ZM383.791 358.585H383.939V356.585H383.791V358.585ZM384.939 357.585V343.182H382.939V357.585H384.939ZM383.939 344.182H394.132V342.182H383.939V344.182ZM393.132 343.182V381H395.132V343.182H393.132ZM394.132 380H384.012V382H394.132V380ZM385.012 381V376.347H383.012V381H385.012ZM384.012 375.347H383.791V377.347H384.012V375.347ZM382.866 375.967C382.521 376.807 382.026 377.562 381.373 378.236L382.811 379.627C383.635 378.775 384.273 377.807 384.716 376.726L382.866 375.967ZM381.373 378.237C380.748 378.883 379.977 379.407 379.043 379.802L379.823 381.644C380.982 381.153 381.983 380.483 382.811 379.627L381.373 378.237ZM379.048 379.8C378.157 380.171 377.109 380.369 375.887 380.369V382.369C377.325 382.369 378.641 382.136 379.817 381.646L379.048 379.8ZM379.654 374.54C380.798 374.54 381.827 374.203 382.687 373.503L381.423 371.952C380.954 372.335 380.382 372.54 379.654 372.54V374.54ZM382.688 373.501C383.533 372.81 384.142 371.87 384.548 370.738L382.665 370.063C382.356 370.926 381.931 371.536 381.422 371.953L382.688 373.501ZM384.545 370.744C384.964 369.598 385.16 368.283 385.16 366.818H383.16C383.16 368.111 382.987 369.184 382.667 370.057L384.545 370.744ZM385.16 366.818C385.16 365.332 384.965 364.008 384.544 362.87L382.668 363.565C382.986 364.421 383.16 365.498 383.16 366.818H385.16ZM384.549 362.884C384.144 361.739 383.531 360.794 382.671 360.121L381.439 361.697C381.933 362.083 382.354 362.677 382.663 363.551L384.549 362.884ZM382.687 360.134C381.827 359.433 380.798 359.097 379.654 359.097V361.097C380.382 361.097 380.954 361.302 381.423 361.684L382.687 360.134ZM379.654 359.097C378.511 359.097 377.482 359.433 376.622 360.134L377.886 361.684C378.355 361.302 378.927 361.097 379.654 361.097V359.097ZM376.624 360.133C375.794 360.806 375.199 361.748 374.797 362.884L376.682 363.551C376.995 362.668 377.409 362.071 377.884 361.686L376.624 360.133ZM374.795 362.891C374.404 364.021 374.223 365.338 374.223 366.818H376.223C376.223 365.492 376.386 364.408 376.685 363.544L374.795 362.891ZM374.223 366.818C374.223 368.299 374.404 369.62 374.793 370.761L376.686 370.114C376.386 369.236 376.223 368.144 376.223 366.818H374.223ZM374.798 370.775C375.201 371.899 375.794 372.834 376.615 373.515L377.893 371.976C377.408 371.574 376.993 370.971 376.681 370.1L374.798 370.775ZM376.631 373.528C377.491 374.213 378.517 374.54 379.654 374.54V372.54C378.921 372.54 378.346 372.337 377.877 371.963L376.631 373.528ZM404.897 379.781L404.424 380.662L404.43 380.666L404.897 379.781ZM399.856 374.759L398.974 375.229L398.977 375.235L399.856 374.759ZM399.875 359.21L400.755 359.685L400.755 359.685L399.875 359.21ZM404.879 354.095L405.371 354.966L405.371 354.966L404.879 354.095ZM418.322 353.264L418.68 352.33L418.68 352.33L418.322 353.264ZM422.772 356.163L422.055 356.86L422.058 356.863L422.772 356.163ZM425.616 360.743L424.678 361.09L424.678 361.09L425.616 360.743ZM426.613 369.182V370.182H427.613V369.182H426.613ZM401.278 369.182H400.278V370.182H401.278V369.182ZM401.278 363.568V362.568H400.278V363.568H401.278ZM417.233 363.568V364.568H418.248L418.232 363.553L417.233 363.568ZM416.605 361.426L415.758 361.958L415.764 361.967L415.77 361.977L416.605 361.426ZM414.998 359.967L414.525 360.848L414.535 360.854L414.545 360.858L414.998 359.967ZM410.456 359.967L410.903 360.862L410.909 360.859L410.915 360.855L410.456 359.967ZM408.794 361.408L407.967 360.845L407.959 360.857L408.794 361.408ZM408.147 363.568L407.148 363.538L407.147 363.553V363.568H408.147ZM408.72 372.062L407.838 372.534L407.838 372.534L408.72 372.062ZM410.363 373.743L409.869 374.612L409.869 374.612L410.363 373.743ZM414.869 374.057L414.553 373.108L414.547 373.11L414.869 374.057ZM416.383 373.207L417.045 373.957L417.051 373.952L417.057 373.946L416.383 373.207ZM417.306 371.841V370.841H416.612L416.369 371.492L417.306 371.841ZM426.613 371.841L427.6 372.001L427.789 370.841H426.613V371.841ZM424.342 376.974L425.112 377.613L425.114 377.609L424.342 376.974ZM419.596 380.335L419.97 381.263L419.973 381.262L419.596 380.335ZM412.727 380.517C409.826 380.517 407.383 379.963 405.364 378.897L404.43 380.666C406.794 381.914 409.571 382.517 412.727 382.517V380.517ZM405.37 378.9C403.364 377.823 401.824 376.29 400.735 374.282L398.977 375.235C400.252 377.585 402.073 379.4 404.424 380.662L405.37 378.9ZM400.738 374.288C399.662 372.271 399.102 369.818 399.102 366.892H397.102C397.102 370.072 397.711 372.864 398.974 375.229L400.738 374.288ZM399.102 366.892C399.102 364.098 399.664 361.707 400.755 359.685L398.994 358.736C397.721 361.096 397.102 363.826 397.102 366.892H399.102ZM400.755 359.685C401.848 357.658 403.382 356.091 405.371 354.966L404.387 353.225C402.067 354.537 400.265 356.379 398.994 358.736L400.755 359.685ZM405.371 354.966C407.35 353.846 409.716 353.267 412.505 353.267V351.267C409.435 351.267 406.717 351.907 404.387 353.225L405.371 354.966ZM412.505 353.267C414.544 353.267 416.359 353.583 417.964 354.198L418.68 352.33C416.814 351.616 414.751 351.267 412.505 351.267V353.267ZM417.964 354.198C419.572 354.814 420.93 355.702 422.055 356.86L423.49 355.467C422.152 354.089 420.544 353.044 418.68 352.33L417.964 354.198ZM422.058 356.863C423.182 358.01 424.058 359.413 424.678 361.09L426.554 360.396C425.845 358.478 424.825 356.828 423.486 355.463L422.058 356.863ZM424.678 361.09C425.295 362.758 425.613 364.663 425.613 366.818H427.613C427.613 364.467 427.266 362.322 426.554 360.396L424.678 361.09ZM425.613 366.818V369.182H427.613V366.818H425.613ZM426.613 368.182H401.278V370.182H426.613V368.182ZM402.278 369.182V363.568H400.278V369.182H402.278ZM401.278 364.568H417.233V362.568H401.278V364.568ZM418.232 363.553C418.218 362.57 417.961 361.666 417.439 360.875L415.77 361.977C416.061 362.417 416.223 362.941 416.233 363.583L418.232 363.553ZM417.452 360.895C416.959 360.11 416.286 359.501 415.452 359.076L414.545 360.858C415.065 361.123 415.462 361.487 415.758 361.958L417.452 360.895ZM415.471 359.086C414.644 358.642 413.72 358.432 412.727 358.432V360.432C413.432 360.432 414.023 360.579 414.525 360.848L415.471 359.086ZM412.727 358.432C411.752 358.432 410.836 358.644 409.996 359.079L410.915 360.855C411.454 360.576 412.052 360.432 412.727 360.432V358.432ZM410.008 359.073C409.172 359.491 408.485 360.083 407.967 360.845L409.621 361.97C409.94 361.501 410.361 361.133 410.903 360.862L410.008 359.073ZM407.959 360.857C407.439 361.645 407.177 362.551 407.148 363.538L409.147 363.598C409.167 362.936 409.336 362.401 409.628 361.959L407.959 360.857ZM407.147 363.568V369.625H409.147V363.568H407.147ZM407.147 369.625C407.147 370.68 407.369 371.657 407.838 372.534L409.602 371.591C409.307 371.039 409.147 370.392 409.147 369.625H407.147ZM407.838 372.534C408.31 373.417 408.993 374.114 409.869 374.612L410.858 372.874C410.305 372.559 409.893 372.136 409.602 371.591L407.838 372.534ZM409.869 374.612C410.764 375.122 411.805 375.352 412.949 375.352V373.352C412.073 373.352 411.39 373.177 410.858 372.874L409.869 374.612ZM412.949 375.352C413.744 375.352 414.495 375.241 415.191 375.003L414.547 373.11C414.086 373.267 413.557 373.352 412.949 373.352V375.352ZM415.185 375.006C415.889 374.771 416.515 374.425 417.045 373.957L415.722 372.458C415.415 372.728 415.031 372.949 414.553 373.108L415.185 375.006ZM417.057 373.946C417.593 373.458 417.991 372.869 418.244 372.19L416.369 371.492C416.228 371.872 416.011 372.194 415.709 372.468L417.057 373.946ZM417.306 372.841H426.613V370.841H417.306V372.841ZM425.626 371.681C425.333 373.487 424.645 375.032 423.569 376.339L425.114 377.609C426.428 376.012 427.254 374.134 427.6 372.001L425.626 371.681ZM423.572 376.336C422.497 377.633 421.058 378.662 419.22 379.409L419.973 381.262C422.074 380.408 423.799 379.197 425.112 377.613L423.572 376.336ZM419.223 379.408C417.409 380.138 415.251 380.517 412.727 380.517V382.517C415.447 382.517 417.869 382.109 419.97 381.263L419.223 379.408Z" fill="#B9B300" mask="url(#path-8-outside-1_10_23)"/>
<mask id="path-10-outside-2_10_23" maskUnits="userSpaceOnUse" x="290" y="385" width="146" height="41" fill="black">
<rect fill="white" x="290" y="385" width="146" height="41"/>
<path d="M306.25 424.517C303.172 424.517 300.538 423.908 298.347 422.689C296.155 421.458 294.475 419.747 293.305 417.555C292.136 415.352 291.551 412.797 291.551 409.892C291.551 406.987 292.136 404.438 293.305 402.247C294.475 400.044 296.155 398.332 298.347 397.114C300.538 395.883 303.172 395.267 306.25 395.267C309.032 395.267 311.439 395.772 313.47 396.781C315.514 397.778 317.096 399.194 318.216 401.028C319.336 402.85 319.902 404.992 319.915 407.455H310.46C310.325 405.965 309.894 404.832 309.168 404.057C308.454 403.269 307.53 402.875 306.398 402.875C305.511 402.875 304.736 403.134 304.071 403.651C303.406 404.155 302.889 404.925 302.52 405.959C302.151 406.981 301.966 408.267 301.966 409.818C301.966 411.369 302.151 412.662 302.52 413.696C302.889 414.718 303.406 415.487 304.071 416.004C304.736 416.509 305.511 416.761 306.398 416.761C307.149 416.761 307.813 416.589 308.392 416.244C308.971 415.887 309.438 415.37 309.795 414.693C310.165 414.004 310.386 413.167 310.46 412.182H319.915C319.878 414.681 319.305 416.86 318.197 418.719C317.089 420.565 315.52 421.993 313.489 423.003C311.47 424.012 309.057 424.517 306.25 424.517ZM337.785 424.517C334.708 424.517 332.073 423.908 329.882 422.689C327.69 421.458 326.01 419.747 324.841 417.555C323.671 415.352 323.086 412.797 323.086 409.892C323.086 406.987 323.671 404.438 324.841 402.247C326.01 400.044 327.69 398.332 329.882 397.114C332.073 395.883 334.708 395.267 337.785 395.267C340.863 395.267 343.497 395.883 345.689 397.114C347.88 398.332 349.56 400.044 350.73 402.247C351.899 404.438 352.484 406.987 352.484 409.892C352.484 412.797 351.899 415.352 350.73 417.555C349.56 419.747 347.88 421.458 345.689 422.689C343.497 423.908 340.863 424.517 337.785 424.517ZM337.859 416.983C338.721 416.983 339.466 416.694 340.093 416.115C340.721 415.536 341.208 414.712 341.552 413.641C341.897 412.57 342.069 411.295 342.069 409.818C342.069 408.329 341.897 407.054 341.552 405.996C341.208 404.925 340.721 404.1 340.093 403.521C339.466 402.943 338.721 402.653 337.859 402.653C336.948 402.653 336.166 402.943 335.514 403.521C334.861 404.1 334.363 404.925 334.018 405.996C333.673 407.054 333.501 408.329 333.501 409.818C333.501 411.295 333.673 412.57 334.018 413.641C334.363 414.712 334.861 415.536 335.514 416.115C336.166 416.694 336.948 416.983 337.859 416.983ZM356.62 424V395.636H366.297V401.028H366.592C367.183 399.256 368.192 397.852 369.62 396.818C371.048 395.784 372.747 395.267 374.717 395.267C376.711 395.267 378.429 395.796 379.869 396.855C381.309 397.902 382.177 399.293 382.473 401.028H382.768C383.248 399.293 384.27 397.902 385.833 396.855C387.397 395.796 389.231 395.267 391.336 395.267C394.057 395.267 396.261 396.141 397.947 397.889C399.646 399.637 400.495 401.964 400.495 404.869V424H390.302V407.455C390.302 406.211 389.988 405.239 389.36 404.537C388.733 403.823 387.889 403.466 386.831 403.466C385.784 403.466 384.953 403.823 384.338 404.537C383.734 405.239 383.433 406.211 383.433 407.455V424H373.683V407.455C373.683 406.211 373.369 405.239 372.741 404.537C372.113 403.823 371.27 403.466 370.211 403.466C369.51 403.466 368.906 403.626 368.402 403.946C367.897 404.266 367.503 404.728 367.22 405.331C366.949 405.922 366.814 406.63 366.814 407.455V424H356.62ZM405.375 424V386.182H415.568V400.585H415.716C416.085 399.625 416.627 398.745 417.341 397.945C418.055 397.132 418.941 396.486 420 396.006C421.059 395.513 422.29 395.267 423.693 395.267C425.564 395.267 427.343 395.766 429.03 396.763C430.729 397.76 432.107 399.33 433.166 401.472C434.237 403.614 434.773 406.396 434.773 409.818C434.773 413.093 434.262 415.807 433.24 417.962C432.231 420.116 430.876 421.723 429.178 422.781C427.491 423.84 425.638 424.369 423.619 424.369C422.29 424.369 421.102 424.154 420.055 423.723C419.021 423.28 418.135 422.683 417.396 421.932C416.67 421.169 416.11 420.307 415.716 419.347H415.494V424H405.375ZM415.347 409.818C415.347 411.197 415.525 412.391 415.882 413.401C416.251 414.398 416.768 415.173 417.433 415.727C418.11 416.269 418.917 416.54 419.852 416.54C420.788 416.54 421.582 416.275 422.234 415.746C422.899 415.204 423.404 414.435 423.749 413.438C424.106 412.428 424.284 411.222 424.284 409.818C424.284 408.415 424.106 407.214 423.749 406.217C423.404 405.208 422.899 404.438 422.234 403.909C421.582 403.367 420.788 403.097 419.852 403.097C418.917 403.097 418.11 403.367 417.433 403.909C416.768 404.438 416.251 405.208 415.882 406.217C415.525 407.214 415.347 408.415 415.347 409.818Z"/>
</mask>
<path d="M306.25 424.517C303.172 424.517 300.538 423.908 298.347 422.689C296.155 421.458 294.475 419.747 293.305 417.555C292.136 415.352 291.551 412.797 291.551 409.892C291.551 406.987 292.136 404.438 293.305 402.247C294.475 400.044 296.155 398.332 298.347 397.114C300.538 395.883 303.172 395.267 306.25 395.267C309.032 395.267 311.439 395.772 313.47 396.781C315.514 397.778 317.096 399.194 318.216 401.028C319.336 402.85 319.902 404.992 319.915 407.455H310.46C310.325 405.965 309.894 404.832 309.168 404.057C308.454 403.269 307.53 402.875 306.398 402.875C305.511 402.875 304.736 403.134 304.071 403.651C303.406 404.155 302.889 404.925 302.52 405.959C302.151 406.981 301.966 408.267 301.966 409.818C301.966 411.369 302.151 412.662 302.52 413.696C302.889 414.718 303.406 415.487 304.071 416.004C304.736 416.509 305.511 416.761 306.398 416.761C307.149 416.761 307.813 416.589 308.392 416.244C308.971 415.887 309.438 415.37 309.795 414.693C310.165 414.004 310.386 413.167 310.46 412.182H319.915C319.878 414.681 319.305 416.86 318.197 418.719C317.089 420.565 315.52 421.993 313.489 423.003C311.47 424.012 309.057 424.517 306.25 424.517ZM337.785 424.517C334.708 424.517 332.073 423.908 329.882 422.689C327.69 421.458 326.01 419.747 324.841 417.555C323.671 415.352 323.086 412.797 323.086 409.892C323.086 406.987 323.671 404.438 324.841 402.247C326.01 400.044 327.69 398.332 329.882 397.114C332.073 395.883 334.708 395.267 337.785 395.267C340.863 395.267 343.497 395.883 345.689 397.114C347.88 398.332 349.56 400.044 350.73 402.247C351.899 404.438 352.484 406.987 352.484 409.892C352.484 412.797 351.899 415.352 350.73 417.555C349.56 419.747 347.88 421.458 345.689 422.689C343.497 423.908 340.863 424.517 337.785 424.517ZM337.859 416.983C338.721 416.983 339.466 416.694 340.093 416.115C340.721 415.536 341.208 414.712 341.552 413.641C341.897 412.57 342.069 411.295 342.069 409.818C342.069 408.329 341.897 407.054 341.552 405.996C341.208 404.925 340.721 404.1 340.093 403.521C339.466 402.943 338.721 402.653 337.859 402.653C336.948 402.653 336.166 402.943 335.514 403.521C334.861 404.1 334.363 404.925 334.018 405.996C333.673 407.054 333.501 408.329 333.501 409.818C333.501 411.295 333.673 412.57 334.018 413.641C334.363 414.712 334.861 415.536 335.514 416.115C336.166 416.694 336.948 416.983 337.859 416.983ZM356.62 424V395.636H366.297V401.028H366.592C367.183 399.256 368.192 397.852 369.62 396.818C371.048 395.784 372.747 395.267 374.717 395.267C376.711 395.267 378.429 395.796 379.869 396.855C381.309 397.902 382.177 399.293 382.473 401.028H382.768C383.248 399.293 384.27 397.902 385.833 396.855C387.397 395.796 389.231 395.267 391.336 395.267C394.057 395.267 396.261 396.141 397.947 397.889C399.646 399.637 400.495 401.964 400.495 404.869V424H390.302V407.455C390.302 406.211 389.988 405.239 389.36 404.537C388.733 403.823 387.889 403.466 386.831 403.466C385.784 403.466 384.953 403.823 384.338 404.537C383.734 405.239 383.433 406.211 383.433 407.455V424H373.683V407.455C373.683 406.211 373.369 405.239 372.741 404.537C372.113 403.823 371.27 403.466 370.211 403.466C369.51 403.466 368.906 403.626 368.402 403.946C367.897 404.266 367.503 404.728 367.22 405.331C366.949 405.922 366.814 406.63 366.814 407.455V424H356.62ZM405.375 424V386.182H415.568V400.585H415.716C416.085 399.625 416.627 398.745 417.341 397.945C418.055 397.132 418.941 396.486 420 396.006C421.059 395.513 422.29 395.267 423.693 395.267C425.564 395.267 427.343 395.766 429.03 396.763C430.729 397.76 432.107 399.33 433.166 401.472C434.237 403.614 434.773 406.396 434.773 409.818C434.773 413.093 434.262 415.807 433.24 417.962C432.231 420.116 430.876 421.723 429.178 422.781C427.491 423.84 425.638 424.369 423.619 424.369C422.29 424.369 421.102 424.154 420.055 423.723C419.021 423.28 418.135 422.683 417.396 421.932C416.67 421.169 416.11 420.307 415.716 419.347H415.494V424H405.375ZM415.347 409.818C415.347 411.197 415.525 412.391 415.882 413.401C416.251 414.398 416.768 415.173 417.433 415.727C418.11 416.269 418.917 416.54 419.852 416.54C420.788 416.54 421.582 416.275 422.234 415.746C422.899 415.204 423.404 414.435 423.749 413.438C424.106 412.428 424.284 411.222 424.284 409.818C424.284 408.415 424.106 407.214 423.749 406.217C423.404 405.208 422.899 404.438 422.234 403.909C421.582 403.367 420.788 403.097 419.852 403.097C418.917 403.097 418.11 403.367 417.433 403.909C416.768 404.438 416.251 405.208 415.882 406.217C415.525 407.214 415.347 408.415 415.347 409.818Z" fill="#EDE500"/>
<path d="M298.347 422.689L297.857 423.561L297.861 423.563L298.347 422.689ZM293.305 417.555L292.422 418.024L292.423 418.026L293.305 417.555ZM293.305 402.247L294.188 402.718L294.189 402.716L293.305 402.247ZM298.347 397.114L298.833 397.988L298.836 397.985L298.347 397.114ZM313.47 396.781L313.025 397.677L313.032 397.68L313.47 396.781ZM318.216 401.028L317.362 401.55L317.364 401.552L318.216 401.028ZM319.915 407.455V408.455H320.92L320.915 407.45L319.915 407.455ZM310.46 407.455L309.464 407.545L309.547 408.455H310.46V407.455ZM309.168 404.057L308.427 404.728L308.432 404.734L308.438 404.74L309.168 404.057ZM304.071 403.651L304.676 404.447L304.685 404.44L304.071 403.651ZM302.52 405.959L303.46 406.299L303.462 406.295L302.52 405.959ZM302.52 413.696L301.578 414.032L301.579 414.036L302.52 413.696ZM304.071 416.004L303.457 416.794L303.466 416.801L304.071 416.004ZM308.392 416.244L308.904 417.103L308.911 417.099L308.917 417.095L308.392 416.244ZM309.795 414.693L308.914 414.221L308.911 414.227L309.795 414.693ZM310.46 412.182V411.182H309.532L309.463 412.107L310.46 412.182ZM319.915 412.182L320.915 412.197L320.93 411.182H319.915V412.182ZM318.197 418.719L319.055 419.233L319.056 419.231L318.197 418.719ZM313.489 423.003L313.044 422.107L313.041 422.108L313.489 423.003ZM306.25 423.517C303.304 423.517 300.845 422.934 298.833 421.815L297.861 423.563C300.231 424.881 303.041 425.517 306.25 425.517V423.517ZM298.836 421.817C296.809 420.678 295.266 419.105 294.188 417.085L292.423 418.026C293.684 420.388 295.501 422.237 297.857 423.561L298.836 421.817ZM294.189 417.087C293.108 415.049 292.551 412.661 292.551 409.892H290.551C290.551 412.934 291.164 415.654 292.422 418.024L294.189 417.087ZM292.551 409.892C292.551 407.123 293.108 404.742 294.188 402.718L292.423 401.776C291.164 404.135 290.551 406.85 290.551 409.892H292.551ZM294.189 402.716C295.267 400.684 296.809 399.113 298.833 397.988L297.861 396.24C295.501 397.552 293.683 399.403 292.422 401.778L294.189 402.716ZM298.836 397.985C300.848 396.855 303.306 396.267 306.25 396.267V394.267C303.039 394.267 300.228 394.91 297.857 396.242L298.836 397.985ZM306.25 396.267C308.912 396.267 311.16 396.75 313.025 397.677L313.915 395.886C311.718 394.794 309.152 394.267 306.25 394.267V396.267ZM313.032 397.68C314.914 398.599 316.348 399.888 317.362 401.55L319.069 400.507C317.844 398.5 316.113 396.958 313.909 395.883L313.032 397.68ZM317.364 401.552C318.375 403.196 318.903 405.152 318.915 407.46L320.915 407.45C320.902 404.832 320.298 402.505 319.068 400.505L317.364 401.552ZM319.915 406.455H310.46V408.455H319.915V406.455ZM311.456 407.364C311.309 405.741 310.827 404.366 309.898 403.373L308.438 404.74C308.961 405.299 309.341 406.189 309.464 407.545L311.456 407.364ZM309.909 403.385C308.992 402.373 307.792 401.875 306.398 401.875V403.875C307.269 403.875 307.916 404.165 308.427 404.728L309.909 403.385ZM306.398 401.875C305.302 401.875 304.307 402.2 303.457 402.861L304.685 404.44C305.165 404.067 305.721 403.875 306.398 403.875V401.875ZM303.466 402.854C302.605 403.508 301.993 404.462 301.578 405.622L303.462 406.295C303.786 405.387 304.207 404.803 304.676 404.447L303.466 402.854ZM301.579 405.619C301.158 406.785 300.966 408.197 300.966 409.818H302.966C302.966 408.338 303.143 407.176 303.46 406.299L301.579 405.619ZM300.966 409.818C300.966 411.44 301.158 412.856 301.578 414.032L303.462 413.36C303.143 412.468 302.966 411.298 302.966 409.818H300.966ZM301.579 414.036C301.995 415.185 302.606 416.131 303.457 416.794L304.685 415.215C304.207 414.843 303.784 414.251 303.46 413.356L301.579 414.036ZM303.466 416.801C304.316 417.446 305.307 417.761 306.398 417.761V415.761C305.715 415.761 305.155 415.572 304.676 415.208L303.466 416.801ZM306.398 417.761C307.308 417.761 308.153 417.551 308.904 417.103L307.88 415.385C307.474 415.627 306.99 415.761 306.398 415.761V417.761ZM308.917 417.095C309.666 416.633 310.25 415.974 310.68 415.16L308.911 414.227C308.626 414.766 308.275 415.141 307.867 415.393L308.917 417.095ZM310.677 415.165C311.127 414.325 311.376 413.345 311.457 412.257L309.463 412.107C309.397 412.988 309.203 413.682 308.914 414.221L310.677 415.165ZM310.46 413.182H319.915V411.182H310.46V413.182ZM318.915 412.167C318.88 414.518 318.344 416.52 317.338 418.207L319.056 419.231C320.267 417.199 320.876 414.843 320.915 412.197L318.915 412.167ZM317.34 418.204C316.336 419.878 314.913 421.178 313.044 422.107L313.934 423.898C316.126 422.809 317.843 421.253 319.055 419.233L317.34 418.204ZM313.041 422.108C311.191 423.034 308.939 423.517 306.25 423.517V425.517C309.175 425.517 311.748 424.991 313.936 423.897L313.041 422.108ZM329.882 422.689L329.392 423.561L329.396 423.563L329.882 422.689ZM324.841 417.555L323.957 418.024L323.958 418.026L324.841 417.555ZM324.841 402.247L325.723 402.718L325.724 402.716L324.841 402.247ZM329.882 397.114L330.368 397.988L330.372 397.985L329.882 397.114ZM345.689 397.114L345.199 397.985L345.203 397.988L345.689 397.114ZM350.73 402.247L349.846 402.716L349.848 402.718L350.73 402.247ZM350.73 417.555L351.612 418.026L351.613 418.024L350.73 417.555ZM345.689 422.689L346.175 423.563L346.178 423.561L345.689 422.689ZM340.093 416.115L340.771 416.85L340.771 416.85L340.093 416.115ZM341.552 413.641L342.504 413.947L342.504 413.947L341.552 413.641ZM341.552 405.996L340.6 406.302L340.601 406.305L341.552 405.996ZM340.093 403.521L340.771 402.786L340.771 402.786L340.093 403.521ZM334.018 405.996L334.969 406.305L334.97 406.302L334.018 405.996ZM334.018 413.641L334.97 413.334L334.97 413.334L334.018 413.641ZM337.785 423.517C334.839 423.517 332.38 422.934 330.368 421.815L329.396 423.563C331.766 424.881 334.576 425.517 337.785 425.517V423.517ZM330.372 421.817C328.345 420.678 326.801 419.105 325.723 417.085L323.958 418.026C325.219 420.388 327.036 422.237 329.392 423.561L330.372 421.817ZM325.724 417.087C324.643 415.049 324.086 412.661 324.086 409.892H322.086C322.086 412.934 322.699 415.654 323.957 418.024L325.724 417.087ZM324.086 409.892C324.086 407.123 324.643 404.742 325.723 402.718L323.958 401.776C322.699 404.135 322.086 406.85 322.086 409.892H324.086ZM325.724 402.716C326.802 400.684 328.344 399.113 330.368 397.988L329.396 396.24C327.037 397.552 325.218 399.403 323.957 401.778L325.724 402.716ZM330.372 397.985C332.383 396.855 334.841 396.267 337.785 396.267V394.267C334.574 394.267 331.763 394.91 329.392 396.242L330.372 397.985ZM337.785 396.267C340.729 396.267 343.187 396.855 345.199 397.985L346.178 396.242C343.807 394.91 340.996 394.267 337.785 394.267V396.267ZM345.203 397.988C347.226 399.113 348.768 400.684 349.846 402.716L351.613 401.778C350.353 399.403 348.534 397.552 346.175 396.24L345.203 397.988ZM349.848 402.718C350.928 404.742 351.484 407.123 351.484 409.892H353.484C353.484 406.85 352.871 404.135 351.612 401.776L349.848 402.718ZM351.484 409.892C351.484 412.661 350.928 415.049 349.846 417.087L351.613 418.024C352.871 415.654 353.484 412.934 353.484 409.892H351.484ZM349.848 417.085C348.769 419.105 347.226 420.678 345.199 421.817L346.178 423.561C348.534 422.237 350.351 420.388 351.612 418.026L349.848 417.085ZM345.203 421.815C343.19 422.934 340.731 423.517 337.785 423.517V425.517C340.995 425.517 343.804 424.881 346.175 423.563L345.203 421.815ZM337.859 417.983C338.969 417.983 339.957 417.601 340.771 416.85L339.416 415.38C338.974 415.786 338.472 415.983 337.859 415.983V417.983ZM340.771 416.85C341.56 416.123 342.123 415.132 342.504 413.947L340.6 413.334C340.292 414.292 339.883 414.949 339.416 415.38L340.771 416.85ZM342.504 413.947C342.889 412.752 343.069 411.369 343.069 409.818H341.069C341.069 411.222 340.905 412.388 340.6 413.334L342.504 413.947ZM343.069 409.818C343.069 408.257 342.889 406.872 342.503 405.686L340.601 406.305C340.905 407.237 341.069 408.401 341.069 409.818H343.069ZM342.504 405.689C342.123 404.505 341.56 403.513 340.771 402.786L339.416 404.257C339.883 404.687 340.292 405.345 340.6 406.302L342.504 405.689ZM340.771 402.786C339.957 402.035 338.969 401.653 337.859 401.653V403.653C338.472 403.653 338.974 403.85 339.416 404.257L340.771 402.786ZM337.859 401.653C336.715 401.653 335.695 402.025 334.85 402.773L336.177 404.269C336.638 403.861 337.181 403.653 337.859 403.653V401.653ZM334.85 402.773C334.03 403.5 333.45 404.496 333.066 405.689L334.97 406.302C335.275 405.353 335.692 404.7 336.177 404.269L334.85 402.773ZM333.067 405.686C332.681 406.872 332.501 408.257 332.501 409.818H334.501C334.501 408.401 334.666 407.237 334.969 406.305L333.067 405.686ZM332.501 409.818C332.501 411.369 332.681 412.752 333.066 413.947L334.97 413.334C334.665 412.388 334.501 411.222 334.501 409.818H332.501ZM333.066 413.947C333.45 415.14 334.03 416.136 334.85 416.863L336.177 415.367C335.692 414.937 335.275 414.283 334.97 413.334L333.066 413.947ZM334.85 416.863C335.695 417.612 336.715 417.983 337.859 417.983V415.983C337.181 415.983 336.638 415.775 336.177 415.367L334.85 416.863ZM356.62 424H355.62V425H356.62V424ZM356.62 395.636V394.636H355.62V395.636H356.62ZM366.297 395.636H367.297V394.636H366.297V395.636ZM366.297 401.028H365.297V402.028H366.297V401.028ZM366.592 401.028V402.028H367.313L367.541 401.345L366.592 401.028ZM369.62 396.818L369.034 396.008L369.034 396.008L369.62 396.818ZM379.869 396.855L379.277 397.661L379.281 397.664L379.869 396.855ZM382.473 401.028L381.487 401.196L381.628 402.028H382.473V401.028ZM382.768 401.028V402.028H383.529L383.732 401.295L382.768 401.028ZM385.833 396.855L386.39 397.686L386.394 397.683L385.833 396.855ZM397.947 397.889L397.227 398.584L397.23 398.586L397.947 397.889ZM400.495 424V425H401.495V424H400.495ZM390.302 424H389.302V425H390.302V424ZM389.36 404.537L388.609 405.197L388.615 405.204L389.36 404.537ZM384.338 404.537L383.58 403.884L383.579 403.885L384.338 404.537ZM383.433 424V425H384.433V424H383.433ZM373.683 424H372.683V425H373.683V424ZM372.741 404.537L371.99 405.197L371.996 405.204L372.741 404.537ZM368.402 403.946L368.937 404.791L368.937 404.791L368.402 403.946ZM367.22 405.331L366.315 404.906L366.311 404.914L367.22 405.331ZM366.814 424V425H367.814V424H366.814ZM357.62 424V395.636H355.62V424H357.62ZM356.62 396.636H366.297V394.636H356.62V396.636ZM365.297 395.636V401.028H367.297V395.636H365.297ZM366.297 402.028H366.592V400.028H366.297V402.028ZM367.541 401.345C368.07 399.758 368.959 398.532 370.207 397.628L369.034 396.008C367.426 397.173 366.296 398.754 365.643 400.712L367.541 401.345ZM370.207 397.628C371.445 396.732 372.932 396.267 374.717 396.267V394.267C372.562 394.267 370.652 394.836 369.034 396.008L370.207 397.628ZM374.717 396.267C376.524 396.267 378.028 396.743 379.277 397.661L380.461 396.049C378.829 394.85 376.899 394.267 374.717 394.267V396.267ZM379.281 397.664C380.513 398.559 381.236 399.721 381.487 401.196L383.458 400.861C383.119 398.864 382.106 397.244 380.457 396.046L379.281 397.664ZM382.473 402.028H382.768V400.028H382.473V402.028ZM383.732 401.295C384.145 399.801 385.016 398.606 386.39 397.686L385.277 396.024C383.524 397.197 382.351 398.784 381.804 400.762L383.732 401.295ZM386.394 397.683C387.773 396.749 389.407 396.267 391.336 396.267V394.267C389.055 394.267 387.02 394.844 385.273 396.027L386.394 397.683ZM391.336 396.267C393.821 396.267 395.753 397.055 397.227 398.584L398.667 397.195C396.768 395.227 394.293 394.267 391.336 394.267V396.267ZM397.23 398.586C398.713 400.113 399.495 402.171 399.495 404.869H401.495C401.495 401.757 400.579 399.162 398.664 397.192L397.23 398.586ZM399.495 404.869V424H401.495V404.869H399.495ZM400.495 423H390.302V425H400.495V423ZM391.302 424V407.455H389.302V424H391.302ZM391.302 407.455C391.302 406.046 390.944 404.807 390.106 403.87L388.615 405.204C389.032 405.67 389.302 406.377 389.302 407.455H391.302ZM390.111 403.877C389.271 402.921 388.14 402.466 386.831 402.466V404.466C387.638 404.466 388.194 404.725 388.609 405.197L390.111 403.877ZM386.831 402.466C385.529 402.466 384.408 402.924 383.58 403.884L385.095 405.19C385.498 404.722 386.039 404.466 386.831 404.466V402.466ZM383.579 403.885C382.774 404.822 382.433 406.055 382.433 407.455H384.433C384.433 406.368 384.695 405.655 385.096 405.189L383.579 403.885ZM382.433 407.455V424H384.433V407.455H382.433ZM383.433 423H373.683V425H383.433V423ZM374.683 424V407.455H372.683V424H374.683ZM374.683 407.455C374.683 406.046 374.325 404.807 373.486 403.87L371.996 405.204C372.413 405.67 372.683 406.377 372.683 407.455H374.683ZM373.492 403.877C372.652 402.921 371.521 402.466 370.211 402.466V404.466C371.019 404.466 371.575 404.725 371.99 405.197L373.492 403.877ZM370.211 402.466C369.354 402.466 368.557 402.663 367.866 403.102L368.937 404.791C369.256 404.589 369.666 404.466 370.211 404.466V402.466ZM367.866 403.102C367.183 403.535 366.669 404.151 366.315 404.906L368.125 405.756C368.337 405.304 368.611 404.997 368.937 404.791L367.866 403.102ZM366.311 404.914C365.966 405.666 365.814 406.523 365.814 407.455H367.814C367.814 406.736 367.932 406.178 368.129 405.748L366.311 404.914ZM365.814 407.455V424H367.814V407.455H365.814ZM366.814 423H356.62V425H366.814V423ZM405.375 424H404.375V425H405.375V424ZM405.375 386.182V385.182H404.375V386.182H405.375ZM415.568 386.182H416.568V385.182H415.568V386.182ZM415.568 400.585H414.568V401.585H415.568V400.585ZM415.716 400.585V401.585H416.403L416.649 400.944L415.716 400.585ZM417.341 397.945L418.087 398.61L418.092 398.605L417.341 397.945ZM420 396.006L420.413 396.916L420.422 396.912L420 396.006ZM429.03 396.763L428.521 397.624L428.524 397.625L429.03 396.763ZM433.166 401.472L432.27 401.915L432.272 401.919L433.166 401.472ZM433.24 417.962L432.337 417.533L432.335 417.537L433.24 417.962ZM429.178 422.781L428.649 421.933L428.646 421.934L429.178 422.781ZM420.055 423.723L419.661 424.642L419.668 424.645L419.675 424.648L420.055 423.723ZM417.396 421.932L416.672 422.621L416.678 422.627L416.683 422.633L417.396 421.932ZM415.716 419.347L416.641 418.967L416.387 418.347H415.716V419.347ZM415.494 419.347V418.347H414.494V419.347H415.494ZM415.494 424V425H416.494V424H415.494ZM415.882 413.401L414.939 413.734L414.942 413.741L414.944 413.748L415.882 413.401ZM417.433 415.727L416.793 416.495L416.801 416.502L416.809 416.508L417.433 415.727ZM422.234 415.746L422.864 416.522L422.866 416.521L422.234 415.746ZM423.749 413.438L422.806 413.104L422.803 413.111L423.749 413.438ZM423.749 406.217L422.802 406.54L422.805 406.547L422.807 406.554L423.749 406.217ZM422.234 403.909L421.596 404.678L421.603 404.685L421.611 404.691L422.234 403.909ZM417.433 403.909L418.056 404.691L418.058 404.69L417.433 403.909ZM415.882 406.217L414.943 405.874L414.941 405.88L415.882 406.217ZM406.375 424V386.182H404.375V424H406.375ZM405.375 387.182H415.568V385.182H405.375V387.182ZM414.568 386.182V400.585H416.568V386.182H414.568ZM415.568 401.585H415.716V399.585H415.568V401.585ZM416.649 400.944C416.973 400.101 417.45 399.324 418.087 398.61L416.595 397.279C415.804 398.165 415.197 399.149 414.783 400.226L416.649 400.944ZM418.092 398.605C418.706 397.907 419.474 397.342 420.413 396.916L419.587 395.095C418.409 395.629 417.404 396.358 416.59 397.284L418.092 398.605ZM420.422 396.912C421.324 396.493 422.407 396.267 423.693 396.267V394.267C422.173 394.267 420.793 394.534 419.578 395.099L420.422 396.912ZM423.693 396.267C425.377 396.267 426.981 396.713 428.521 397.624L429.539 395.902C427.706 394.818 425.752 394.267 423.693 394.267V396.267ZM428.524 397.625C430.021 398.504 431.279 399.91 432.27 401.915L434.063 401.029C432.936 398.749 431.436 397.016 429.536 395.9L428.524 397.625ZM432.272 401.919C433.25 403.875 433.773 406.489 433.773 409.818H435.773C435.773 406.303 435.224 403.352 434.061 401.024L432.272 401.919ZM433.773 409.818C433.773 412.997 433.276 415.553 432.337 417.533L434.144 418.39C435.248 416.062 435.773 413.189 435.773 409.818H433.773ZM432.335 417.537C431.391 419.55 430.155 420.994 428.649 421.933L429.706 423.63C431.598 422.451 433.07 420.682 434.146 418.386L432.335 417.537ZM428.646 421.934C427.121 422.892 425.453 423.369 423.619 423.369V425.369C425.824 425.369 427.861 424.788 429.709 423.628L428.646 421.934ZM423.619 423.369C422.398 423.369 421.343 423.172 420.436 422.798L419.675 424.648C420.861 425.136 422.182 425.369 423.619 425.369V423.369ZM420.449 422.804C419.526 422.408 418.751 421.883 418.109 421.231L416.683 422.633C417.519 423.483 418.516 424.151 419.661 424.642L420.449 422.804ZM418.121 421.242C417.479 420.568 416.987 419.811 416.641 418.967L414.791 419.726C415.233 420.803 415.861 421.769 416.672 422.621L418.121 421.242ZM415.716 418.347H415.494V420.347H415.716V418.347ZM414.494 419.347V424H416.494V419.347H414.494ZM415.494 423H405.375V425H415.494V423ZM414.347 409.818C414.347 411.28 414.535 412.592 414.939 413.734L416.825 413.067C416.515 412.191 416.347 411.114 416.347 409.818H414.347ZM414.944 413.748C415.361 414.872 415.966 415.807 416.793 416.495L418.073 414.959C417.57 414.54 417.142 413.924 416.82 413.053L414.944 413.748ZM416.809 416.508C417.677 417.203 418.709 417.54 419.852 417.54V415.54C419.125 415.54 418.543 415.335 418.058 414.946L416.809 416.508ZM419.852 417.54C420.99 417.54 422.013 417.213 422.864 416.522L421.604 414.969C421.15 415.337 420.586 415.54 419.852 415.54V417.54ZM422.866 416.521C423.705 415.837 424.302 414.897 424.694 413.764L422.803 413.111C422.506 413.973 422.093 414.571 421.603 414.971L422.866 416.521ZM424.691 413.771C425.096 412.627 425.284 411.302 425.284 409.818H423.284C423.284 411.141 423.115 412.229 422.806 413.104L424.691 413.771ZM425.284 409.818C425.284 408.335 425.096 407.014 424.69 405.88L422.807 406.554C423.115 407.415 423.284 408.495 423.284 409.818H425.284ZM424.695 405.894C424.304 404.75 423.705 403.802 422.857 403.127L421.611 404.691C422.093 405.075 422.504 405.666 422.802 406.54L424.695 405.894ZM422.873 403.14C422.022 402.433 420.995 402.097 419.852 402.097V404.097C420.58 404.097 421.142 404.302 421.596 404.678L422.873 403.14ZM419.852 402.097C418.709 402.097 417.677 402.433 416.809 403.128L418.058 404.69C418.543 404.302 419.125 404.097 419.852 404.097V402.097ZM416.81 403.127C415.968 403.797 415.359 404.737 414.943 405.874L416.821 406.561C417.144 405.679 417.569 405.08 418.056 404.691L416.81 403.127ZM414.941 405.88C414.535 407.014 414.347 408.335 414.347 409.818H416.347C416.347 408.495 416.516 407.415 416.824 406.554L414.941 405.88Z" fill="#B9B300" mask="url(#path-10-outside-2_10_23)"/>
</g>
<defs>
<clipPath id="clip0_10_23">
<rect width="728" height="768" fill="white"/>
</clipPath>
</defs>
</svg>
